<svg width="40" height="40" viewBox="0 0 40 40" fill="none" xmlns="http://www.w3.org/2000/svg">
<circle cx="20" cy="20" r="20" fill="#303030"/>
<path fill-rule="evenodd" clip-rule="evenodd" d="M24 14.7646L21.6884 16.9775C21.6287 17.037 21.6107 17.1267 21.6429 17.2046C21.6752 17.2825 21.7511 17.3333 21.8354 17.3333H28.3334V11.1042C28.3328 11.0201 28.2818 10.9446 28.204 10.9127C28.1262 10.8808 28.0369 10.8988 27.9775 10.9583L25.8046 13.0371C23.7334 11.0125 20.7583 10.2107 17.9502 10.9203C15.1421 11.6299 12.905 13.7487 12.0442 16.5142L14.4309 17.26C15.029 15.3392 16.5759 13.863 18.5226 13.3554C20.4692 12.8477 22.5401 13.3805 24 14.7646ZM18.3803 20.7951C18.348 20.7174 18.2721 20.6667 18.1879 20.6667H11.6667V26.8154C11.6667 26.8997 11.7175 26.9757 11.7954 27.0079C11.8733 27.0401 11.963 27.0222 12.0225 26.9625L14.1709 24.9408C16.2388 26.977 19.2182 27.7889 22.0333 27.0833C24.8484 26.3778 27.0927 24.2567 27.9559 21.4858L25.5692 20.74C24.9702 22.6626 23.4208 24.1396 21.4717 24.6459C19.5226 25.1522 17.4502 24.616 15.9913 23.2279L18.3354 21.0221C18.3949 20.9624 18.4126 20.8729 18.3803 20.7951Z" fill="white"/>
</svg>
